<?xml version="1.0" standalone="no"?>
<!DOCTYPE svg PUBLIC "-//W3C//DTD SVG 20010904//EN"
 "http://www.w3.org/TR/2001/REC-SVG-20010904/DTD/svg10.dtd">
<svg version="1.0" xmlns="http://www.w3.org/2000/svg"
 width="133.000000pt" height="129.000000pt" viewBox="0 0 133.000000 129.000000"
 preserveAspectRatio="xMidYMid meet">

<g transform="translate(0.000000,129.000000) scale(0.100000,-0.100000)"
fill="#000000" stroke="none">
<path d="M548 1239 c-16 -9 -18 -33 -18 -269 l0 -260 -84 0 c-86 0 -112 -11
-104 -44 5 -25 269 -320 294 -331 22 -8 29 -4 67 40 23 27 88 101 144 164 136
153 136 171 -4 171 l-83 0 0 258 c0 187 -3 261 -12 270 -15 15 -175 16 -200 1z"/>
<path d="M1143 403 l-73 -4 0 -114 0 -115 -425 0 -425 0 0 115 0 115 -75 0
-75 0 0 -165 c0 -163 0 -166 25 -190 l24 -25 526 0 526 0 24 25 c25 24 25 27
25 195 0 93 -1 169 -2 168 -2 -1 -36 -4 -75 -5z"/>
</g>
</svg>
