<svg id="Layer_3" height="512" viewBox="0 0 32 32" width="512" xmlns="http://www.w3.org/2000/svg" data-name="Layer 3"><path d="m29.393 23.36c-.874-.733-6-3.979-6.852-3.83-.4.071-.706.412-1.525 1.389a11.687 11.687 0 0 1 -1.244 1.347 10.757 10.757 0 0 1 -2.374-.88 14.7 14.7 0 0 1 -6.784-6.786 10.757 10.757 0 0 1 -.88-2.374 11.687 11.687 0 0 1 1.347-1.244c.976-.819 1.318-1.123 1.389-1.525.149-.854-3.1-5.978-3.83-6.852-.306-.362-.584-.605-.94-.605-1.032 0-5.7 5.772-5.7 6.52 0 .061.1 6.07 7.689 13.791 7.721 7.589 13.73 7.689 13.791 7.689.748 0 6.52-4.668 6.52-5.7 0-.356-.243-.634-.607-.94z"/><path d="m23 15h2a8.009 8.009 0 0 0 -8-8v2a6.006 6.006 0 0 1 6 6z"/><path d="m28 15h2a13.015 13.015 0 0 0 -13-13v2a11.013 11.013 0 0 1 11 11z"/></svg>